<svg width="24" height="24" viewBox="0 0 24 24" fill="none" xmlns="http://www.w3.org/2000/svg">
<rect width="24" height="24" rx="12" fill="#92BD2D"/>
<path fill-rule="evenodd" clip-rule="evenodd" d="M14.357 5.01371C14.3672 4.99917 14.3872 4.99563 14.4017 5.00581L15.3958 5.70186C15.4103 5.71204 15.4139 5.73208 15.4037 5.74662L14.0201 7.72254C14.6928 7.93743 15.151 8.16922 15.151 8.16922C15.151 8.16922 14.0309 10.0959 12.1311 10.0959C10.2313 10.0959 8.88128 8.3002 8.88128 8.3002C8.88128 8.3002 9.35996 7.99471 10.0695 7.73271L8.55195 5.92415C8.54055 5.91056 8.54233 5.89029 8.55592 5.87888L9.48552 5.09884C9.49914 5.08743 9.5194 5.0892 9.5308 5.1028L11.4523 7.39275C11.6168 7.37414 11.7844 7.36374 11.9536 7.36374C12.1967 7.36374 12.4395 7.38222 12.6766 7.41359L14.357 5.01371ZM14.7328 10.1872C15.2398 9.82508 16.007 8.88002 16.007 8.88002C16.007 8.88002 17.9665 10.4329 17.9665 13.7255C17.9665 17.0181 14.5788 18.9998 14.5788 18.9998C14.5788 18.9998 12.9601 17.3651 12.5628 15.293C12.1655 13.2209 13.1506 10.92 13.1506 10.92C13.1506 10.92 14.2258 10.5492 14.7328 10.1872V10.1872ZM9.27276 10.1872C8.76578 9.82508 7.99863 8.88002 7.99863 8.88002C7.99863 8.88002 6.03906 10.4329 6.03906 13.7255C6.03906 17.0181 9.42684 18.9998 9.42684 18.9998C9.42684 18.9998 11.0455 17.3651 11.4428 15.293C11.8401 13.2209 10.855 10.92 10.855 10.92C10.855 10.92 9.77977 10.5492 9.27276 10.1872V10.1872Z" fill="white"/>
</svg>
