<svg width="24" height="24" viewBox="0 0 24 24" fill="none" xmlns="http://www.w3.org/2000/svg">
<rect width="24" height="24" rx="12" fill="#595762"/>
<g clip-path="url(#clip0_43_123)">
<path fill-rule="evenodd" clip-rule="evenodd" d="M11.2721 17.3826C11.5381 17.4233 11.8105 17.4444 12.0878 17.4444C15.041 17.4444 17.435 15.0504 17.435 12.0972C17.435 9.14403 15.041 6.75 12.0878 6.75C11.8897 6.75 11.6941 6.76078 11.5015 6.78178C12.9665 7.89163 13.935 9.8142 13.935 12C13.935 14.298 12.8645 16.305 11.2721 17.3826ZM11.9906 19C15.8566 19 18.9906 15.866 18.9906 12C18.9906 8.134 15.8566 5 11.9906 5C8.1246 5 4.9906 8.134 4.9906 12C4.9906 15.866 8.1246 19 11.9906 19Z" fill="white"/>
</g>
<defs>
<clipPath id="clip0_43_123">
<rect width="14" height="14" fill="white" transform="translate(5 5)"/>
</clipPath>
</defs>
</svg>
