<svg width="24" height="24" viewBox="0 0 24 24" fill="none" xmlns="http://www.w3.org/2000/svg">
<rect width="24" height="24" rx="12" fill="#146AC8"/>
<path fill-rule="evenodd" clip-rule="evenodd" d="M12.6754 11.9694C12.7703 11.9115 12.8508 11.7903 12.9157 11.6556C13.7701 12.0047 14.3705 12.8299 14.3705 13.7921C14.3705 15.0704 13.3109 16.1067 12.0039 16.1067C11.4673 16.1067 10.9725 15.9321 10.5756 15.6378C10.4453 15.5761 10.3382 15.5169 10.2505 15.4684C10.1146 15.3933 10.0254 15.3439 9.96956 15.3517C9.80635 15.3742 9.85373 15.5243 9.8968 15.6608C9.92603 15.7534 9.95329 15.8397 9.9111 15.8753C9.86697 15.9126 9.72402 15.7763 9.55697 15.6171C9.32958 15.4003 9.05757 15.1409 8.9293 15.2188C8.82788 15.2804 8.92634 15.4475 9.04688 15.6521L9.05582 15.6672C9.10673 15.7537 9.16574 15.8417 9.21958 15.9221C9.32904 16.0853 9.41719 16.2169 9.37309 16.2392C9.31977 16.2661 8.94827 16.0153 8.63522 15.6672C8.51438 15.5329 8.39735 15.3873 8.28858 15.2519V15.2519C8.0505 14.9557 7.85214 14.7089 7.7408 14.7381C7.60686 14.7733 7.70818 15.0496 7.85707 15.3154C7.92668 15.4398 8.00858 15.5664 8.07948 15.676V15.676C8.18976 15.8465 8.27346 15.9758 8.24311 15.9918C8.20214 16.0132 7.84173 15.6617 7.59693 15.2188C7.45153 14.9558 7.32944 14.665 7.2306 14.4297C7.12341 14.1744 7.04356 13.9843 6.99098 13.9652C6.80831 13.8987 6.80831 14.2711 6.88158 14.8087C6.89113 14.8788 6.90536 14.9524 6.92289 15.0273C7.63339 17.3262 9.816 19 12.3983 19C15.557 19 18.1176 16.4956 18.1176 13.4063C18.1176 10.466 15.798 8.05558 12.8509 7.82991C12.8547 7.6914 12.927 7.41672 12.927 7.41672C12.927 7.41672 13.4472 6.15793 13.4747 5.88894C13.4765 5.87109 13.4787 5.85169 13.481 5.83103C13.5134 5.54039 13.5737 5 13.1088 5C12.8605 5 12.7451 5.1847 12.613 5.39593V5.39594C12.5624 5.47703 12.5092 5.56204 12.4452 5.642C11.9839 6.21799 11.2083 6.93727 10.7686 7.32048C9.83905 8.13042 8.92708 8.79608 8.39519 9.1843L8.39516 9.18433C8.15325 9.36089 7.98998 9.48008 7.93945 9.52933C7.55866 9.90055 6.19333 12.3633 6.19333 12.3633C6.19333 12.3633 5.7518 13.1534 5.90874 13.3137C6.06568 13.4739 6.44414 13.4372 6.44414 13.4372C6.44414 13.4372 11.5285 12.2708 11.9836 12.1788C12.1062 12.154 12.1927 12.1397 12.2591 12.1288C12.4395 12.099 12.4718 12.0936 12.6754 11.9694ZM9.08064 10.4705C8.80773 10.7299 8.35511 11.3491 8.35511 11.3491C8.35511 11.3491 9.19631 11.4009 9.65959 10.9606C10.1229 10.5202 10.0168 9.76965 10.0168 9.76965C10.0168 9.76965 9.35354 10.2111 9.08064 10.4705Z" fill="white"/>
</svg>
