<svg width="24" height="24" viewBox="0 0 24 24" fill="none" xmlns="http://www.w3.org/2000/svg">
<rect width="24" height="24" rx="12" fill="#F2D94E"/>
<path fill-rule="evenodd" clip-rule="evenodd" d="M9.17156 5.01596C9.16885 5.00815 9.17468 5 9.18293 5H14.1001C14.1054 5 14.1101 5.00343 14.1116 5.00847L16.3702 12.3055C16.3726 12.3132 16.3668 12.321 16.3587 12.321H13.0851C13.0811 12.321 13.0782 12.3248 13.0793 12.3287L14.9568 18.9378C14.9605 18.9506 14.9437 18.959 14.9356 18.9483L7.63948 9.24558C7.63351 9.23765 7.63917 9.22633 7.64909 9.22633H10.6201C10.6243 9.22633 10.6271 9.22226 10.6258 9.21835L9.17156 5.01596Z" fill="white"/>
</svg>
