<svg width="24" height="24" viewBox="0 0 24 24" fill="none" xmlns="http://www.w3.org/2000/svg">
<rect width="24" height="24" rx="12" fill="#EF90E6"/>
<g clip-path="url(#clip0_43_110)">
<path fill-rule="evenodd" clip-rule="evenodd" d="M7.80891 16.101L10.0544 15.4499L11.9939 18.9961C11.9965 19.0007 12.0031 19.0007 12.0056 18.9961L13.9451 15.4499L16.1906 16.101C16.1957 16.1024 16.2003 16.0977 16.1988 16.0927L15.5476 13.8916L18.9961 12.0056C19.0007 12.0031 19.0007 11.9965 18.9961 11.994L15.5192 10.0924L16.1988 7.79521C16.2003 7.79018 16.1957 7.78551 16.1906 7.78696L13.8924 8.45335L12.0056 5.00345C12.0031 4.99885 11.9965 4.99885 11.994 5.00345L10.1071 8.45335L7.80891 7.78696C7.80388 7.78551 7.79921 7.79018 7.80071 7.79521L8.48034 10.0924L5.00345 11.994C4.99885 11.9965 4.99885 12.0031 5.00345 12.0056L8.4519 13.8916L7.80071 16.0927C7.79921 16.0977 7.80388 16.1024 7.80891 16.101ZM9.55142 12.024L11.1423 12.894L12.0123 14.4848C12.0148 14.4894 12.0214 14.4894 12.024 14.4848L12.894 12.894L14.4848 12.024C14.4894 12.0214 14.4894 12.0148 14.4848 12.0123L12.894 11.1423L12.024 9.55145C12.0214 9.54683 12.0148 9.54683 12.0123 9.55145L11.1423 11.1423L9.55142 12.0123C9.54683 12.0148 9.54683 12.0214 9.55142 12.024Z" fill="white"/>
</g>
<defs>
<clipPath id="clip0_43_110">
<rect width="14" height="14" fill="white" transform="translate(5 5)"/>
</clipPath>
</defs>
</svg>
