<svg width="24" height="24" viewBox="0 0 24 24" fill="none" xmlns="http://www.w3.org/2000/svg">
<rect width="24" height="24" rx="12" fill="#D3425F"/>
<path fill-rule="evenodd" clip-rule="evenodd" d="M7.41264 6.1639C7.58207 5.49496 8.18809 5 8.90969 5C9.45096 5 9.92721 5.27849 10.2029 5.7H10.6545C10.935 5.41211 11.3269 5.23333 11.7606 5.23333C12.3965 5.23333 12.9426 5.61765 13.1793 6.16667H13.5573C13.7942 6.01879 14.0741 5.93333 14.3739 5.93333C15.0098 5.93333 15.5559 6.31765 15.7926 6.86667H16.8206C16.8294 6.86667 16.8376 6.86903 16.8447 6.87316C16.8917 6.86886 16.9392 6.86667 16.9873 6.86667C17.8401 6.86667 18.5315 7.55805 18.5315 8.41091V13.0414L18.5315 13.05L18.5315 13.0586V13.1253C18.5315 13.1535 18.5307 13.1817 18.5292 13.2097C18.4363 16.4219 15.5478 19 11.9982 19C8.38991 19 5.46484 16.3361 5.46484 13.05C5.46484 11.4638 6.14638 10.0226 7.25732 8.95596C7.25455 10.5023 7.28067 12.101 7.40107 12.0736C7.72347 12.0001 7.47158 7.21046 7.41264 6.1639Z" fill="white"/>
</svg>
