<svg width="24" height="24" viewBox="0 0 24 24" fill="none" xmlns="http://www.w3.org/2000/svg">
<rect width="24" height="24" rx="12" fill="#FBA64B"/>
<path fill-rule="evenodd" clip-rule="evenodd" d="M14.6321 15.8116C14.805 15.1791 14.4693 13.8788 14.4693 13.8788C14.4693 13.8788 14.2258 14.9381 13.8452 15.3296C13.5206 15.6635 13.1229 15.8951 12.5525 15.956C13.0189 15.7295 13.3396 15.2572 13.3396 14.7113C13.3396 13.9449 12.7076 13.3237 11.928 13.3237C11.1485 13.3237 10.5165 13.9449 10.5165 14.7113C10.5165 14.9206 10.5636 15.119 10.648 15.297C10.1605 14.9086 10.0838 14.2858 10.0838 14.2858C10.0838 14.2858 9.53931 16.5463 11.0396 17.6096C12.5398 18.673 15.4786 17.759 15.4786 17.759C15.4786 17.759 11.2729 20.7182 8.15646 17.4975C5.47187 14.723 7.45578 11.0704 7.45578 11.0704C7.45578 11.0704 7.3701 11.4092 7.3701 11.8026C7.3701 12.1959 7.58336 12.4952 7.58336 12.4952C7.58336 12.4952 8.21951 11.1543 8.7146 10.609C9.18316 10.0929 9.77053 9.6743 10.2779 9.31277C10.6684 9.03446 11.0115 8.78995 11.2164 8.56079C12.3451 7.29875 11.653 5 11.653 5C11.653 5 12.9253 6.12164 13.2805 7.57025C13.4159 8.12244 13.3288 8.75071 13.251 9.31255C13.1245 10.2246 13.0223 10.9616 13.9358 10.9138C15.4118 10.8365 14.1292 8.56079 14.1292 8.56079C14.1292 8.56079 17.4775 10.3206 17.2273 13.3985C16.9771 16.4764 13.5675 17.1761 13.5675 17.1761C13.5675 17.1761 14.4591 16.444 14.6321 15.8116Z" fill="white"/>
</svg>
