<svg width="24" height="24" viewBox="0 0 24 24" fill="none" xmlns="http://www.w3.org/2000/svg">
<rect width="24" height="24" rx="12" fill="#A0BBEC"/>
<path fill-rule="evenodd" clip-rule="evenodd" d="M9.88666 18.063C11.9375 18.063 13.6933 16.9232 14.4182 15.3074C14.427 15.2877 11.508 16.066 11.6011 15.7909C11.6426 15.668 13.432 15.0143 14.7357 14.2519C15.485 13.8136 15.83 12.8859 15.83 12.8859C15.83 12.8859 14.5677 13.4988 13.9295 13.6543C12.6435 13.9677 11.5114 13.9339 11.5114 13.9013C11.5114 13.8307 13.3911 13.4735 16.0038 11.8814C17.2327 11.1326 17.5665 9.84266 17.5665 9.84266C17.5665 9.84266 16.2154 10.6474 15.3986 10.9131C13.4617 11.5432 11.6942 11.7331 11.6942 11.6478C11.6942 11.4653 13.2497 11.0376 14.8989 10.2384C15.7564 9.82295 16.499 9.28012 17.3596 8.67645C18.7677 7.68877 19 5.92969 19 5.92969C19 5.92969 17.6111 6.82547 16.9334 7.12295C14.1367 8.35046 11.6672 8.99435 9.88666 9.13375C7.19888 9.34418 5 11.2195 5 13.6543C5 16.0892 7.18783 18.063 9.88666 18.063Z" fill="white"/>
</svg>
