<svg width="24" height="24" viewBox="0 0 24 24" fill="none" xmlns="http://www.w3.org/2000/svg">
<rect width="24" height="24" rx="12" fill="#5F6DBC"/>
<path fill-rule="evenodd" clip-rule="evenodd" d="M15.0885 18.9515C13.8257 19.0162 12.38 19.0162 11.8887 18.9515C8.05621 18.4473 5 15.6453 5 11.8578C5 8.07035 8.134 5 12 5C15.866 5 19 8.07035 19 11.8578C19 13.6193 18.3221 15.2257 17.2079 16.4403C16.9053 16.7701 17.3205 17.0014 17.7422 17.2364C18.1559 17.467 18.576 17.7011 18.3318 18.0351C18.0628 18.4032 16.6045 18.8739 15.0885 18.9515ZM11.0156 11.0006C11.0156 11.5924 10.5259 12.0721 9.92188 12.0721C9.31782 12.0721 8.82812 11.5924 8.82812 11.0006C8.82812 10.6037 9.04838 10.2572 9.37566 10.072C9.3945 10.588 9.81876 11.0006 10.3394 11.0006H11.0156V11.0006ZM14.4056 10.072C14.3868 10.588 13.9625 11.0006 13.4419 11.0006H12.7656V11.0006C12.7656 11.5924 13.2553 12.0721 13.8594 12.0721C14.4634 12.0721 14.9531 11.5924 14.9531 11.0006C14.9531 10.6037 14.7329 10.2572 14.4056 10.072Z" fill="white"/>
</svg>
