<svg width="24" height="24" viewBox="0 0 24 24" fill="none" xmlns="http://www.w3.org/2000/svg">
<rect width="24" height="24" rx="12" fill="#60BD58"/>
<path fill-rule="evenodd" clip-rule="evenodd" d="M7.66361 17.049C7.61555 17.0038 7.56803 16.9577 7.52106 16.9107C5.0414 14.4311 5.0414 10.4108 7.52106 7.93114C10.0007 5.45147 17.9018 5.28558 17.9018 5.28558C17.9018 5.28558 18.9803 14.4311 16.5007 16.9107C14.2984 19.113 10.881 19.3594 8.40681 17.6499L10.4004 15.2034L13.5873 14.5153L10.9858 14.2553L12.6391 12.5719L14.521 12.1597L13.0329 11.719L14.521 9.03448L12.4043 11.4087L11.5869 10.2552L11.8747 12.1597L10.4004 13.8217L9.71698 11.719V14.5153L7.66361 17.049Z" fill="white"/>
</svg>
