<svg width="24" height="24" viewBox="0 0 24 24" fill="none" xmlns="http://www.w3.org/2000/svg">
<rect width="24" height="24" rx="12" fill="#DA7C4D"/>
<g clip-path="url(#clip0_43_81)">
<path fill-rule="evenodd" clip-rule="evenodd" d="M8.08339 17.0245C8.07959 17.0245 8.07694 17.0208 8.0782 17.0172L11.6524 6.91773C11.6532 6.91553 11.6553 6.91406 11.6576 6.91406H15.4732C15.4756 6.91406 15.4777 6.91554 15.4784 6.91775L18.9996 17.0172C19.0009 17.0208 18.9982 17.0245 18.9944 17.0245H8.1908H8.08339ZM5.0055 17.064C5.00167 17.064 4.99901 17.0602 5.00035 17.0566L7.66199 9.95075C7.66279 9.94859 7.66484 9.94717 7.66714 9.94717H9.97979C9.98362 9.94717 9.98627 9.95097 9.98496 9.95455L7.41123 17.0604C7.41045 17.0626 7.40838 17.064 7.40606 17.064H5.0055Z" fill="white"/>
</g>
<defs>
<clipPath id="clip0_43_81">
<rect width="14" height="14" fill="white" transform="translate(5 5)"/>
</clipPath>
</defs>
</svg>
