<svg width="24" height="24" viewBox="0 0 24 24" fill="none" xmlns="http://www.w3.org/2000/svg">
<rect width="24" height="24" rx="12" fill="#76D1C1"/>
<path fill-rule="evenodd" clip-rule="evenodd" d="M15.5083 6.06754L15.5514 9.85055L12.2518 11.4345L12.2111 7.8626L15.5083 6.06754Z" fill="white"/>
<path fill-rule="evenodd" clip-rule="evenodd" d="M18.8159 12.0286L15.5496 13.897L12.2813 12.0257L15.5479 10.3098L18.8159 12.0286Z" fill="white"/>
<path fill-rule="evenodd" clip-rule="evenodd" d="M11.7003 12.0286L8.43396 13.897L5.16566 12.0257L8.43227 10.3098L11.7003 12.0286Z" fill="white"/>
<path fill-rule="evenodd" clip-rule="evenodd" d="M8.39726 6.05206L11.7875 7.73113L11.7008 11.3902L8.4998 9.80482L8.39726 6.05206Z" fill="white"/>
<path fill-rule="evenodd" clip-rule="evenodd" d="M15.6006 17.948L12.2103 16.2689L12.297 12.6098L15.498 14.1952L15.6006 17.948Z" fill="white"/>
<path fill-rule="evenodd" clip-rule="evenodd" d="M8.51436 17.982L8.47127 14.199L11.7709 12.6151L11.8116 16.1869L8.51436 17.982Z" fill="white"/>
</svg>
