<svg width="24" height="24" viewBox="0 0 24 24" fill="none" xmlns="http://www.w3.org/2000/svg">
<rect width="24" height="24" rx="12" fill="#B764CF"/>
<path fill-rule="evenodd" clip-rule="evenodd" d="M16.6982 15.7584C18.112 14.628 19 12.9947 19 11.1783C19 7.76612 15.866 5 12 5C8.134 5 5 7.76612 5 11.1783C5 12.9291 5.82506 14.5098 7.15073 15.634C7.07039 15.9114 7.02631 16.2132 7.02631 16.5287C7.02631 17.8935 7.85105 19 8.86843 19C9.52949 19 10.1092 18.5328 10.4342 17.8312C10.7592 18.5328 11.3389 19 12 19C12.6026 19 13.1376 18.6118 13.4737 18.0117C13.8098 18.6118 14.3448 19 14.9474 19C15.9647 19 16.7895 17.8935 16.7895 16.5287C16.7895 16.2597 16.7574 16.0008 16.6982 15.7584ZM16.0526 11.3008C16.0526 13.0332 14.197 14.4375 11.9079 14.4375C9.61882 14.4375 7.76317 13.0332 7.76317 11.3008C7.76317 9.56851 9.61882 8.16416 11.9079 8.16416C14.197 8.16416 16.0526 9.56851 16.0526 11.3008Z" fill="white"/>
</svg>
