<svg width="24" height="24" viewBox="0 0 24 24" fill="none" xmlns="http://www.w3.org/2000/svg">
<rect width="24" height="24" rx="12" fill="#FA8582"/>
<g clip-path="url(#clip0_43_59)">
<path fill-rule="evenodd" clip-rule="evenodd" d="M17.4667 16.6261C17.4667 16.6261 15.7014 18.042 12.1885 17.4561C9.52328 17.0115 8.10179 14.0736 8.10179 12.4943C8.10179 8.75017 10.873 7.89811 12.7465 7.89811C14.62 7.89811 15.8422 9.72467 15.8422 11.1389C15.8422 12.5531 14.8419 13.7901 13.2853 13.7901C11.7287 13.7901 11.2677 12.6973 11.2677 11.6926C11.2677 10.6879 12.0806 10.334 12.8219 10.334C13.5632 10.334 13.817 10.9669 13.817 11.5108C13.817 12.0548 13.395 12.2496 13.043 12.2496C12.6909 12.2496 12.6561 12.072 12.5214 11.8853C12.3867 11.6987 12.6932 10.9923 12.1885 10.9923C11.6837 10.9923 11.5896 11.8044 11.5896 11.8044C11.5896 11.8044 11.7736 13.3721 13.2853 13.3451C14.797 13.318 15.5142 12.1493 15.3057 10.9923C15.0973 9.8352 13.9744 8.60568 12.0036 8.85413C10.0329 9.10257 9.22822 11.0939 9.58289 13.2219C9.93757 15.3499 12.4869 16.5829 14.4913 16.1393C16.4958 15.6957 18.4922 14.2445 18.4922 10.5654C18.4922 6.88614 15.3057 4.6746 11.5062 5.03908C7.70665 5.40355 5.34806 8.72537 5.49903 12.7166C5.65 16.7078 9.43721 18.8816 12.6397 18.9936C15.8422 19.1057 17.8054 17.2518 17.8054 17.2518C17.8054 17.2518 18.2469 16.8581 18.0738 16.5507C17.9007 16.2432 17.4667 16.6261 17.4667 16.6261Z" fill="white"/>
</g>
<defs>
<clipPath id="clip0_43_59">
<rect width="14" height="14" fill="white" transform="translate(5 5)"/>
</clipPath>
</defs>
</svg>
