<svg width="24" height="24" viewBox="0 0 24 24" fill="none" xmlns="http://www.w3.org/2000/svg">
<rect width="24" height="24" rx="12" fill="#C9BC8A"/>
<g clip-path="url(#clip0_43_55)">
<path fill-rule="evenodd" clip-rule="evenodd" d="M15.8046 11.6926C15.8038 11.6915 15.8034 11.6901 15.8037 11.6888L16.6968 6.48071C16.6972 6.47832 16.6993 6.47656 16.7017 6.47656H16.9844C16.9866 6.47656 16.9885 6.47798 16.9892 6.48005L19.0014 12.8512C19.002 12.8532 19.0013 12.8554 18.9997 12.8567L17.5161 14.015C17.5138 14.0168 17.5106 14.0163 17.509 14.0141L15.8046 11.6926ZM4.97266 15.1451C4.97266 15.1473 4.97405 15.1492 4.9761 15.1499L8.03447 16.1499C8.03595 16.1504 8.03759 16.1501 8.03888 16.1492L14.8751 11.4297C14.8762 11.4289 14.877 11.4277 14.8772 11.4263L15.6103 6.50742C15.6107 6.5044 15.6084 6.50169 15.6053 6.50169H9.55016C9.54866 6.50169 9.54727 6.50235 9.54631 6.50349L4.97381 12.0195C4.97306 12.0204 4.97266 12.0215 4.97266 12.0227V15.1451ZM9.30891 16.4047L12.6501 17.4992C12.6516 17.4996 12.6533 17.4994 12.6546 17.4985L16.6325 14.6451C16.6347 14.6435 16.6353 14.6405 16.6338 14.6382L15.1426 12.4192C15.141 12.4168 15.1379 12.4162 15.1356 12.4178L9.30891 16.4047Z" fill="white"/>
</g>
<defs>
<clipPath id="clip0_43_55">
<rect width="14" height="14" fill="white" transform="translate(5 5)"/>
</clipPath>
</defs>
</svg>
