<svg width="24" height="24" viewBox="0 0 24 24" fill="none" xmlns="http://www.w3.org/2000/svg">
<rect width="24" height="24" rx="12" fill="#5795A3"/>
<path fill-rule="evenodd" clip-rule="evenodd" d="M5.0014 11.9597C4.99954 11.9566 4.99953 11.9526 5.0014 11.9494L8.52174 5.93473C8.52357 5.93161 8.52693 5.92969 8.53054 5.92969H15.508C15.5117 5.92969 15.515 5.93162 15.5169 5.93477L18.9986 11.9495C19.0004 11.9526 19.0004 11.9565 18.9986 11.9597L15.5169 17.9676C15.515 17.9708 15.5117 17.9727 15.508 17.9727H8.53054C8.52693 17.9727 8.52357 17.9708 8.52174 17.9677L5.0014 11.9597ZM15.2434 11.9512C15.2434 13.7419 13.7918 15.1935 12.0011 15.1935C10.2104 15.1935 8.75875 13.7419 8.75875 11.9512C8.75875 10.1605 10.2104 8.70885 12.0011 8.70885C13.7918 8.70885 15.2434 10.1605 15.2434 11.9512Z" fill="white"/>
</svg>
