<svg width="24" height="24" viewBox="0 0 24 24" fill="none" xmlns="http://www.w3.org/2000/svg">
<rect width="24" height="24" rx="12" fill="#549DDF"/>
<path fill-rule="evenodd" clip-rule="evenodd" d="M16.5438 14.475C16.5438 16.9737 14.5105 18.9994 12.0024 18.9994C9.49419 18.9994 7.46094 16.9737 7.46094 14.475C7.46094 12.0448 11.7567 5.37045 11.9923 5.00623C11.9977 4.99792 12.0071 4.99792 12.0124 5.00623C12.248 5.37045 16.5438 12.0448 16.5438 14.475ZM11.2453 17.5489C8.94078 17.0446 9.33513 14.4918 9.33513 14.4918C9.33513 14.4918 9.96442 16.0329 11.4915 16.5321C13.0186 17.0312 14.8641 16.2991 14.8641 16.2991C14.8641 16.2991 13.5498 18.0531 11.2453 17.5489Z" fill="white"/>
</svg>
