<svg width="93" height="53" viewBox="0 0 93 53" fill="none" xmlns="http://www.w3.org/2000/svg">
<path d="M83.1461 16.2054C81.297 17.981 78.3438 20.2771 76.4814 21.4519C74.3662 22.7869 71.4795 24.5358 68.473 26.1645C68.0606 26.3914 67.901 26.9254 68.1271 27.3259C69.3111 29.3951 69.7634 31.8515 70.2157 34.0409C70.4418 35.1223 70.5882 36.2303 70.668 37.3383C70.668 37.3383 70.9872 42.4914 71.2799 46.9369C71.7588 47.4309 72.4373 47.6845 73.3419 46.977C75.324 45.415 75.8694 46.4563 75.8694 46.4563C75.8694 46.4563 76.1488 46.6032 76.3616 46.3095C76.5878 46.0158 77.3062 45.8422 77.7718 46.4563C78.2374 47.0838 79.3548 46.483 79.3548 46.483C79.3548 46.483 79.9002 46.4029 80.2727 47.4843C80.4723 48.0583 81.1374 48.3921 81.7094 48.5656C82.3214 48.7659 82.7604 49.3132 82.8269 49.9674C82.8402 50.1142 82.8535 50.2611 82.8668 50.4079C82.9067 51.0487 82.9466 51.7562 82.7071 52.357C82.614 52.6106 82.4544 52.8109 82.2016 52.931C82.0686 52.9978 81.9622 52.9844 81.8158 52.9844C81.6695 52.9844 81.5232 52.9844 81.3636 52.9844C80.3392 52.9978 79.3282 52.9844 78.3039 52.9844C77.7318 52.9844 77.1598 52.9844 76.6011 52.9844C75.9359 52.9844 75.2708 52.9844 74.6056 52.9844C73.8607 52.9844 73.1024 52.9844 72.3575 52.9844C71.5327 52.9844 70.6946 52.9844 69.8698 52.9844C68.9785 52.9844 68.0739 52.9844 67.1826 52.9844C66.2248 52.9844 65.267 52.9844 64.3092 52.9844C63.2981 52.9844 62.3004 52.9844 61.2894 52.9844C60.2385 52.9844 59.1875 52.9844 58.1499 52.9844C57.0724 52.9844 55.9948 52.9844 54.904 52.9844C53.7998 52.9844 52.6957 52.9844 51.5916 52.9844C50.4741 52.9844 49.3567 52.9844 48.2392 52.9844C47.1218 52.9844 45.991 52.9844 44.8736 52.9844C43.7561 52.9844 42.6387 52.9844 41.5212 52.9844C40.4171 52.9844 39.3129 52.9844 38.2088 52.9844C37.1313 52.9844 36.0404 52.9844 34.9629 52.9844C33.9119 52.9844 32.861 52.9844 31.8101 52.9844C30.7991 52.9844 29.788 52.9844 28.777 52.9844C27.8192 52.9844 26.8481 52.9844 25.8903 52.9844C24.9857 52.9844 24.0811 52.9844 23.1765 52.9844C22.3384 52.9844 21.5003 52.9844 20.6622 52.9844C19.9039 52.9844 19.1457 52.9844 18.3741 52.9844C17.6957 52.9844 17.0172 52.9844 16.3521 52.9844C15.7667 52.9844 15.1947 52.9844 14.6094 52.9844C14.1305 52.9844 13.6516 52.9844 13.1727 52.9844C12.5341 52.9844 11.8956 52.9844 11.257 52.9978C10.8979 53.0111 10.4855 52.9711 10.246 52.6774C10.0731 52.4504 9.97995 52.1701 9.94004 51.8897C9.83362 51.249 9.88683 50.5815 9.95334 49.9407C10.0199 49.2999 10.4589 48.7392 11.0708 48.5389C11.6428 48.352 12.308 48.0316 12.5075 47.4576C12.88 46.3896 13.4254 46.4563 13.4254 46.4563C13.4254 46.4563 14.5429 47.0571 15.0085 46.4296C15.4741 45.8022 16.2057 45.9757 16.4186 46.2828C16.6447 46.5765 16.9108 46.4296 16.9108 46.4296C16.9108 46.4296 17.4562 45.3883 19.4383 46.9503C20.1301 47.4976 20.6888 47.4709 21.1278 47.2173C22.0191 44.2936 22.1787 37.5252 22.3118 36.2303C22.6177 33.2666 23.4957 29.8891 24.7861 27.366C24.7861 27.366 24.7861 27.366 24.7861 27.3526C25.0256 26.8854 24.8526 26.298 24.387 26.0443C21.4338 24.429 18.6003 22.7202 16.525 21.4119C14.6759 20.2371 11.7093 17.9409 9.86022 16.1654C6.00237 12.4674 -1.47389 1.86761 0.255496 0.0253198C0.255496 0.0253198 16.5117 -1.09607 32.2624 18.3147C33.0073 19.2358 34.311 19.5162 35.3753 18.9956C35.7478 18.8087 36.1335 18.6351 36.506 18.4616C39.1001 17.3402 41.8937 16.6727 44.7139 16.4858C47.9465 16.2722 51.2058 16.6593 54.2921 17.6739C55.4095 18.0477 56.5136 18.5016 57.5646 19.0223C58.6288 19.5562 59.9325 19.2759 60.6908 18.3548C76.4548 -1.10942 92.7376 0.0119711 92.7376 0.0119711C94.4936 1.90766 87.004 12.5075 83.1461 16.2054Z" fill="black"/>
<path d="M12.6672 48.6858C12.9332 46.9102 13.5984 47.4576 13.9975 48.0049C14.1571 48.2319 14.503 48.2185 14.6493 47.9782C15.687 46.2828 16.0727 47.1505 16.1792 47.551C16.2058 47.6578 16.2856 47.7379 16.392 47.778C16.525 47.818 16.6581 47.778 16.7512 47.6712C18.2145 45.7755 18.4407 47.1772 18.4673 48.0183C18.4673 48.2185 18.6934 48.3253 18.8664 48.2185C20.476 47.1105 20.0902 50.0741 20.0902 50.0741C20.9017 50.221 21.3806 51.1154 21.6201 51.7162C21.7265 51.9832 21.5269 52.2635 21.2476 52.2635H11.1107C9.68732 49.3533 12.6672 48.6858 12.6672 48.6858ZM80.02 48.6858C79.7539 46.9102 79.0888 47.4576 78.6897 48.0049C78.5301 48.2319 78.1842 48.2185 78.0379 47.9782C77.0002 46.2828 76.6144 47.1505 76.508 47.551C76.4814 47.6578 76.4016 47.7379 76.2952 47.778C76.1621 47.818 76.0291 47.778 75.936 47.6712C74.4727 45.7755 74.2465 47.1772 74.2199 48.0183C74.2199 48.2185 73.9938 48.3253 73.8208 48.2185C72.2112 47.1105 72.5969 50.0741 72.5969 50.0741C71.7855 50.221 71.3066 51.1154 71.0671 51.7162C70.9607 51.9832 71.1602 52.2635 71.4396 52.2635H81.5764C82.9999 49.3533 80.02 48.6858 80.02 48.6858ZM85.115 3.38949C84.5696 7.10076 83.3457 14.8704 80.153 17.5671C78.2507 19.1691 75.803 20.7577 74.0071 21.8925C73.0093 22.5199 72.0648 23.2542 71.0804 23.895C70.5483 24.2421 69.9896 24.5625 69.4175 24.8428C69.0185 25.0297 68.2203 25.537 67.7813 25.4169C67.6083 25.3768 67.462 25.2567 67.3157 25.1499C67.1693 25.0431 67.0097 24.9363 66.8368 24.9096C66.5308 24.8562 66.4111 25.0431 66.3446 25.2967C66.2647 25.6171 66.318 25.9642 66.4776 26.2579C68.2868 29.5153 69.4974 33.1999 69.8033 36.9111C69.9231 38.3663 69.7501 39.8081 69.8299 41.2499C69.9098 42.6249 70.0295 43.9999 70.3487 45.3349C70.4286 45.682 70.5217 46.0291 70.6281 46.3629C70.6813 46.5364 70.9208 47.3374 70.5483 47.4309C70.4818 47.4442 70.4153 47.4309 70.3621 47.4175C68.6194 46.9503 67.0762 46.443 65.3202 47.2306C64.1363 47.7646 63.5642 48.6457 62.8858 49.7271C62.633 50.1409 62.4069 50.5681 62.2073 51.0086C62.1142 51.2356 62.0344 51.4625 61.9413 51.6895C61.928 51.7429 61.8349 52.2902 61.8349 52.2902C61.8349 52.2902 58.3628 52.3036 57.6311 52.3036C56.1944 52.2902 54.7577 52.2902 53.321 52.2902C52.5361 52.2902 51.7512 52.2769 50.9664 52.2769L51.0728 51.3157C51.0994 51.3157 51.126 51.3157 51.1659 51.3157C52.2301 51.3157 53.4141 50.9152 54.5182 49.6603C54.6247 49.5402 54.6114 49.3533 54.4916 49.2331C54.3719 49.1263 54.1857 49.1397 54.0659 49.2598C51.5517 52.1434 48.5984 49.9273 48.2925 49.687C48.0663 49.4334 46.5232 47.8714 43.3438 50.1542C42.4924 50.7683 41.6277 51.0086 40.8029 50.8618C39.3263 50.5948 38.3685 49.2064 38.3552 49.1931C38.262 49.0596 38.0758 49.0195 37.9428 49.1129C37.8097 49.2064 37.7698 49.3933 37.863 49.5268C37.9029 49.5936 38.9671 51.1421 40.6832 51.4492C40.8827 51.4892 41.0823 51.5026 41.2818 51.5026C41.3882 51.5026 41.4814 51.5026 41.5878 51.4892L41.6144 52.2368C40.6965 52.2368 39.7786 52.2235 38.8474 52.2101C36.8918 52.1834 34.9496 52.1434 32.9941 52.1167C32.2491 52.1033 31.4908 52.0766 30.7592 52.0766C30.7991 50.5414 29.7216 48.886 28.5908 47.9515C27.2073 46.8034 25.1986 46.6833 23.5224 47.0971C23.1366 47.1906 22.0857 47.818 21.793 47.3641C21.5935 47.0437 22.232 46.443 22.3251 46.1493C22.9238 44.2536 23.0302 42.1309 23.2297 40.1685C23.4958 37.5386 23.3894 34.922 23.855 32.3188C24.0545 31.2107 24.3605 30.1027 24.8128 29.0747C25.0389 28.5541 25.305 28.0468 25.6109 27.5662C25.8637 27.1657 26.183 26.8186 26.4224 26.4047C26.6087 26.111 27.1674 24.9363 26.449 24.8962C25.8903 24.8695 25.7573 25.3634 24.7995 25.2433C23.6288 25.0964 22.4715 24.3489 21.5136 23.7081C20.5558 23.0806 19.6645 22.3731 18.6934 21.759C16.8975 20.6242 13.8378 18.7552 12.0952 16.9797C9.30154 14.1228 7.35931 4.04363 7.86482 2.56179C7.86482 2.56179 17.1104 2.32149 31.8367 19.8099C32.5817 20.691 33.8322 20.958 34.8831 20.4507C35.229 20.2771 35.5882 20.1169 35.9473 19.9567C38.4616 18.8754 42.4924 18.0744 45.2195 17.9008C48.3457 17.6872 51.4985 18.0744 54.4783 19.0623C55.5692 19.4227 57.2187 20.157 58.2431 20.6643C59.2807 21.1849 60.6908 20.3172 61.4092 19.4227C71.8121 6.40657 80.7783 3.20259 84.104 2.49504C84.7558 2.32149 85.2081 2.73534 85.115 3.38949ZM37.2244 39.8348C37.2244 37.2582 35.1359 35.1623 32.5684 35.1623C30.0009 35.1623 27.9124 37.2582 27.9124 39.8348C27.9124 42.4113 30.0009 44.5072 32.5684 44.5072C35.1359 44.4939 37.2244 42.4113 37.2244 39.8348ZM47.3613 42.5581H46.2704H45.1796C44.6475 42.5581 44.3282 43.1455 44.6076 43.5861L45.1131 44.4004C45.6851 45.1747 46.8424 45.1747 47.4145 44.4004L47.92 43.5861C48.2127 43.1455 47.8934 42.5581 47.3613 42.5581ZM64.828 39.8348C64.828 37.2582 62.7395 35.1623 60.172 35.1623C57.6045 35.1623 55.516 37.2582 55.516 39.8348C55.516 42.4113 57.6045 44.5072 60.172 44.5072C62.7528 44.4939 64.828 42.4113 64.828 39.8348Z" fill="#FCD20B"/>
<path d="M22.7905 52.2368C22.7905 52.2368 21.1809 50.9419 21.3538 49.1263C21.3538 49.1263 27.6727 44.7342 29.8012 52.2502L22.7905 52.2368ZM69.7899 52.2368C69.7899 52.2368 71.3995 50.9419 71.2266 49.1263C71.2266 49.1263 64.9077 44.7342 62.7792 52.2502L69.7899 52.2368ZM50.4474 52.3703L50.474 51.7162C50.4873 51.4759 50.3276 51.2757 50.1015 51.2223C49.5694 51.1155 48.6382 50.8351 48.146 50.1943C47.4276 49.2732 45.4455 49.153 44.4211 50.2477C43.7959 50.9285 43.0775 51.1421 42.6119 51.2089C42.3326 51.2489 42.133 51.4892 42.133 51.7696V52.3303L50.4474 52.3703Z" fill="#ED1C24"/>
<path d="M35.8407 38.2996C35.8407 39.4877 34.8829 40.4355 33.7122 40.4355C32.5282 40.4355 31.5837 39.4744 31.5837 38.2996C31.5837 37.1114 32.5416 36.1636 33.7122 36.1636C34.8829 36.1636 35.8407 37.1248 35.8407 38.2996ZM58.908 36.1636C57.724 36.1636 56.7795 37.1248 56.7795 38.2996C56.7795 39.4877 57.7373 40.4355 58.908 40.4355C60.0919 40.4355 61.0365 39.4744 61.0365 38.2996C61.0365 37.1248 60.0786 36.1636 58.908 36.1636Z" fill="white"/>
<path d="M35.5481 40.9027C35.5481 40.9561 35.5614 41.0229 35.5614 41.0763C35.5614 42.5981 34.3375 43.8263 32.821 43.8263C31.4242 43.8263 30.2801 42.785 30.1072 41.4367C30.8255 41.637 31.7168 41.7304 32.6613 41.6637C33.7921 41.5836 34.8164 41.3032 35.5481 40.9027ZM57.0589 40.9027C57.0589 40.9561 57.0456 41.0229 57.0456 41.0763C57.0456 42.5981 58.2695 43.8263 59.7861 43.8263C61.1829 43.8263 62.3269 42.785 62.4999 41.4367C61.7815 41.637 60.8902 41.7304 59.9457 41.6637C58.8149 41.5836 57.7906 41.3032 57.0589 40.9027Z" fill="#765241"/>
</svg>
