<svg width="18" height="18" viewBox="0 0 18 18" fill="none" xmlns="http://www.w3.org/2000/svg">
<g clip-path="url(#clip0_1_62)">
<path d="M13.21 11.6367C14.2994 10.1503 14.7873 8.3073 14.5761 6.47654C14.365 4.64578 13.4704 2.96225 12.0713 1.76277C10.6722 0.563283 8.87174 -0.0636991 7.03022 0.00725815C5.18869 0.0782154 3.44186 0.841879 2.1392 2.14547C0.836548 3.44906 0.0741345 5.19643 0.00449493 7.03801C-0.0651446 8.87959 0.563126 10.6796 1.76361 12.0778C2.9641 13.476 4.64827 14.3694 6.47917 14.5793C8.31008 14.7891 10.1527 14.2999 11.6384 13.2095H11.6373C11.671 13.2545 11.707 13.2972 11.7475 13.3389L16.0788 17.6701C16.2897 17.8812 16.5759 17.9999 16.8743 18C17.1727 18.0001 17.459 17.8816 17.6701 17.6707C17.8812 17.4597 17.9998 17.1736 17.9999 16.8751C18 16.5767 17.8816 16.2905 17.6707 16.0794L13.3394 11.7481C13.2992 11.7074 13.2559 11.6698 13.21 11.6356V11.6367ZM13.5003 7.31225C13.5003 8.1248 13.3402 8.9294 13.0293 9.6801C12.7183 10.4308 12.2626 11.1129 11.688 11.6875C11.1134 12.262 10.4313 12.7178 9.68063 13.0288C8.92993 13.3397 8.12533 13.4997 7.31278 13.4997C6.50022 13.4997 5.69563 13.3397 4.94492 13.0288C4.19422 12.7178 3.51212 12.262 2.93755 11.6875C2.36299 11.1129 1.90722 10.4308 1.59627 9.6801C1.28532 8.9294 1.12528 8.1248 1.12528 7.31225C1.12528 5.67122 1.77717 4.0974 2.93755 2.93702C4.09794 1.77664 5.67175 1.12475 7.31278 1.12475C8.9538 1.12475 10.5276 1.77664 11.688 2.93702C12.8484 4.0974 13.5003 5.67122 13.5003 7.31225Z" fill="#9C9C9C"/>
</g>
<defs>
<clipPath id="clip0_1_62">
<rect width="18" height="18" fill="white"/>
</clipPath>
</defs>
</svg>
